<?xml version="1.0" encoding="utf-8" standalone="no"?>
<!DOCTYPE svg PUBLIC "-//W3C//DTD SVG 1.1//EN"
  "http://www.w3.org/Graphics/SVG/1.1/DTD/svg11.dtd">
<svg xmlns:xlink="http://www.w3.org/1999/xlink" width="216pt" height="216pt" viewBox="0 0 216 216" xmlns="http://www.w3.org/2000/svg" version="1.1">
 <metadata>
  <rdf:RDF xmlns:dc="http://purl.org/dc/elements/1.1/" xmlns:cc="http://creativecommons.org/ns#" xmlns:rdf="http://www.w3.org/1999/02/22-rdf-syntax-ns#">
   <cc:Work>
    <dc:type rdf:resource="http://purl.org/dc/dcmitype/StillImage"/>
    <dc:date>2025-11-12T01:57:41.219130</dc:date>
    <dc:format>image/svg+xml</dc:format>
    <dc:creator>
     <cc:Agent>
      <dc:title>Matplotlib v3.10.7, https://matplotlib.org/</dc:title>
     </cc:Agent>
    </dc:creator>
   </cc:Work>
  </rdf:RDF>
 </metadata>
 <defs>
  <style type="text/css">*{stroke-linejoin: round; stroke-linecap: butt}</style>
 </defs>
 <g id="figure_1">
  <g id="patch_1">
   <path d="M 0 216 
L 216 216 
L 216 0 
L 0 0 
L 0 216 
z
" style="fill: none"/>
  </g>
  <g id="axes_1">
   <g id="patch_2">
    <path d="M 41.275 177.81125 
L 194.546304 177.81125 
L 194.546304 1.1 
L 41.275 1.1 
L 41.275 177.81125 
z
" style="fill: none"/>
   </g>
   <g id="matplotlib.axis_1">
    <g id="xtick_1">
     <g id="line2d_1">
      <path d="M 41.275 177.81125 
L 41.275 1.1 
" clip-path="url(#pfdfb327c3b)" style="fill: none; stroke: #cccccc; stroke-opacity: 0.2; stroke-width: 0.5; stroke-linecap: square"/>
     </g>
     <g id="line2d_2">
      <defs>
       <path id="m357f3b9469" d="M 0 0 
L 0 4 
" style="stroke: #333333; stroke-width: 0.5"/>
      </defs>
      <g>
       <use xlink:href="#m357f3b9469" x="41.275" y="177.81125" style="fill: #333333; stroke: #333333; stroke-width: 0.5"/>
      </g>
     </g>
     <g id="text_1">
      <!-- 0.0 -->
      <g style="fill: #333333" transform="translate(35.025 192.58625) scale(0.1 -0.1)">
       <defs>
        <path id="Palatino-Roman-30" d="M 194 1934 
Q 194 2825 322 3309 
Q 450 3794 787 4109 
Q 1125 4425 1644 4425 
Q 1906 4425 2129 4336 
Q 2353 4247 2495 4111 
Q 2638 3975 2736 3776 
Q 2834 3578 2875 3378 
Q 2969 2922 2969 2384 
Q 2969 1684 2859 1184 
Q 2797 900 2681 664 
Q 2566 428 2406 262 
Q 2247 97 2022 -1 
Q 1797 -100 1516 -100 
Q 1175 -100 931 44 
Q 688 188 544 413 
Q 344 734 269 1148 
Q 194 1563 194 1934 
z
M 731 2116 
Q 731 1666 790 1233 
Q 850 800 978 531 
Q 1066 350 1234 234 
Q 1403 119 1613 119 
Q 1969 119 2159 416 
Q 2434 841 2434 2106 
Q 2434 2650 2376 3083 
Q 2319 3516 2184 3794 
Q 2097 3972 1939 4086 
Q 1781 4200 1559 4200 
Q 1316 4200 1123 4044 
Q 931 3888 831 3477 
Q 731 3066 731 2116 
z
" transform="scale(0.015625)"/>
        <path id="Palatino-Roman-2e" d="M 800 716 
Q 956 716 1064 606 
Q 1172 497 1172 341 
Q 1172 188 1062 78 
Q 953 -31 800 -31 
Q 644 -31 534 78 
Q 425 188 425 341 
Q 425 497 534 606 
Q 644 716 800 716 
z
" transform="scale(0.015625)"/>
       </defs>
       <use xlink:href="#Palatino-Roman-30"/>
       <use xlink:href="#Palatino-Roman-2e" transform="translate(50 0)"/>
       <use xlink:href="#Palatino-Roman-30" transform="translate(75 0)"/>
      </g>
     </g>
    </g>
    <g id="xtick_2">
     <g id="line2d_3">
      <path d="M 94.758805 177.81125 
L 94.758805 1.1 
" clip-path="url(#pfdfb327c3b)" style="fill: none; stroke: #cccccc; stroke-opacity: 0.2; stroke-width: 0.5; stroke-linecap: square"/>
     </g>
     <g id="line2d_4">
      <g>
       <use xlink:href="#m357f3b9469" x="94.758805" y="177.81125" style="fill: #333333; stroke: #333333; stroke-width: 0.5"/>
      </g>
     </g>
     <g id="text_2">
      <!-- 0.5 -->
      <g style="fill: #333333" transform="translate(88.508805 192.58625) scale(0.1 -0.1)">
       <defs>
        <path id="Palatino-Roman-35" d="M 413 69 
Q 341 281 297 394 
L 91 903 
L 244 994 
Q 525 481 590 420 
Q 656 359 884 278 
Q 1113 197 1350 197 
Q 1663 197 1898 328 
Q 2134 459 2264 720 
Q 2394 981 2394 1350 
Q 2394 1894 2098 2156 
Q 1803 2419 1400 2419 
Q 1163 2419 969 2328 
Q 822 2256 619 2034 
L 491 2072 
L 528 2844 
Q 534 3019 534 3128 
L 534 3684 
Q 534 3934 519 4184 
Q 513 4281 509 4341 
L 550 4372 
Q 1059 4334 1619 4334 
Q 2094 4334 2756 4372 
L 2772 4341 
Q 2750 4181 2750 4053 
Q 2750 3991 2756 3838 
L 2725 3819 
Q 2291 3847 1425 3847 
Q 1106 3847 822 3838 
Q 775 3406 759 2538 
Q 1009 2719 1209 2789 
Q 1409 2859 1653 2859 
Q 2016 2859 2317 2704 
Q 2619 2550 2781 2259 
Q 2944 1969 2944 1622 
Q 2944 1081 2575 616 
Q 2019 -91 1081 -91 
Q 875 -91 729 -55 
Q 584 -19 413 69 
z
" transform="scale(0.015625)"/>
       </defs>
       <use xlink:href="#Palatino-Roman-30"/>
       <use xlink:href="#Palatino-Roman-2e" transform="translate(50 0)"/>
       <use xlink:href="#Palatino-Roman-35" transform="translate(75 0)"/>
      </g>
     </g>
    </g>
    <g id="xtick_3">
     <g id="line2d_5">
      <path d="M 148.242609 177.81125 
L 148.242609 1.1 
" clip-path="url(#pfdfb327c3b)" style="fill: none; stroke: #cccccc; stroke-opacity: 0.2; stroke-width: 0.5; stroke-linecap: square"/>
     </g>
     <g id="line2d_6">
      <g>
       <use xlink:href="#m357f3b9469" x="148.242609" y="177.81125" style="fill: #333333; stroke: #333333; stroke-width: 0.5"/>
      </g>
     </g>
     <g id="text_3">
      <!-- 1.0 -->
      <g style="fill: #333333" transform="translate(141.992609 192.58625) scale(0.1 -0.1)">
       <defs>
        <path id="Palatino-Roman-31" d="M 478 3559 
L 422 3575 
L 391 3831 
L 422 3863 
Q 756 3959 1150 4128 
Q 1731 4375 1897 4459 
L 1978 4428 
Q 1928 2997 1928 2784 
L 1928 1625 
Q 1928 931 1944 575 
Q 1953 366 1995 311 
Q 2038 256 2120 232 
Q 2203 209 2663 191 
L 2663 0 
Q 1872 25 1672 25 
Q 1522 25 613 0 
L 613 191 
Q 1088 219 1161 236 
Q 1234 253 1270 287 
Q 1306 322 1322 384 
Q 1347 481 1365 942 
Q 1384 1403 1384 1641 
L 1384 2872 
Q 1384 3625 1381 3816 
Q 1381 3900 1359 3922 
Q 1347 3934 1325 3934 
Q 1297 3934 1181 3884 
Q 650 3647 478 3559 
z
" transform="scale(0.015625)"/>
       </defs>
       <use xlink:href="#Palatino-Roman-31"/>
       <use xlink:href="#Palatino-Roman-2e" transform="translate(50 0)"/>
       <use xlink:href="#Palatino-Roman-30" transform="translate(75 0)"/>
      </g>
     </g>
    </g>
    <g id="text_4">
     <!-- Word Occurrences -->
     <g style="fill: #111111" transform="translate(73.083933 211.343437) scale(0.11 -0.11)">
      <defs>
       <path id="Palatino-Roman-57" d="M 1472 -34 
L 1188 1269 
L 584 3841 
Q 519 4113 459 4164 
Q 400 4216 72 4253 
L 72 4441 
Q 597 4416 866 4416 
Q 1106 4416 1678 4441 
L 1678 4253 
Q 1266 4238 1206 4206 
Q 1166 4184 1166 4119 
Q 1166 4038 1203 3841 
Q 1306 3281 1341 3131 
L 1831 966 
L 2603 2888 
Q 2906 3644 3200 4484 
L 3400 4484 
Q 3688 3597 3916 2963 
L 4650 925 
L 5181 2791 
Q 5322 3291 5444 3831 
Q 5500 4078 5500 4116 
Q 5500 4181 5445 4211 
Q 5391 4241 4947 4253 
L 4947 4441 
Q 5428 4419 5616 4419 
Q 5809 4419 6284 4441 
L 6284 4253 
Q 6069 4250 5997 4209 
Q 5925 4169 5878 4062 
Q 5831 3956 5616 3238 
L 5294 2184 
Q 5247 2028 5097 1475 
L 4694 -34 
L 4375 -34 
Q 4028 997 3838 1516 
L 3125 3444 
L 2503 1900 
L 2113 878 
Q 2031 669 1973 505 
Q 1916 341 1788 -34 
L 1472 -34 
z
" transform="scale(0.015625)"/>
       <path id="Palatino-Roman-6f" d="M 213 1438 
Q 213 2138 658 2580 
Q 1103 3022 1800 3022 
Q 2456 3022 2868 2609 
Q 3281 2197 3281 1544 
Q 3281 1088 3068 709 
Q 2856 331 2468 117 
Q 2081 -97 1616 -97 
Q 1253 -97 1001 25 
Q 750 147 594 331 
Q 438 516 356 709 
Q 213 1050 213 1438 
z
M 803 1669 
Q 803 1284 931 887 
Q 1059 491 1301 308 
Q 1544 125 1828 125 
Q 2191 125 2434 412 
Q 2678 700 2678 1297 
Q 2678 1794 2533 2155 
Q 2388 2516 2163 2664 
Q 1938 2813 1666 2813 
Q 1281 2813 1042 2534 
Q 803 2256 803 1669 
z
" transform="scale(0.015625)"/>
       <path id="Palatino-Roman-72" d="M 147 0 
L 147 178 
Q 500 184 528 191 
Q 581 200 607 220 
Q 634 241 650 278 
Q 681 350 688 503 
Q 706 1338 706 1375 
L 706 1747 
Q 706 1997 697 2284 
Q 691 2469 670 2503 
Q 650 2538 598 2555 
Q 547 2572 191 2569 
L 191 2747 
Q 822 2834 1113 2975 
Q 1175 3006 1197 3006 
Q 1219 3006 1231 2990 
Q 1244 2975 1244 2944 
Q 1244 2922 1241 2894 
Q 1225 2703 1222 2303 
Q 1363 2466 1481 2625 
Q 1600 2784 1653 2831 
Q 1747 2913 1869 2961 
Q 1991 3009 2122 3009 
Q 2253 3009 2381 2953 
L 2400 2909 
Q 2353 2494 2347 2178 
L 2206 2178 
Q 2134 2328 2039 2397 
Q 1944 2466 1800 2466 
Q 1559 2466 1390 2267 
Q 1222 2069 1222 1672 
L 1222 1350 
Q 1222 1144 1238 597 
Q 1241 403 1253 350 
Q 1266 297 1286 273 
Q 1306 250 1353 234 
Q 1447 206 1859 178 
L 1859 0 
Q 1309 22 922 22 
Q 522 22 147 0 
z
" transform="scale(0.015625)"/>
       <path id="Palatino-Roman-64" d="M 2122 4244 
L 2122 4422 
Q 2469 4459 2708 4511 
Q 2947 4563 3175 4638 
L 3216 4609 
Q 3203 4344 3188 3584 
L 3175 3084 
L 3175 1128 
Q 3175 809 3186 576 
Q 3197 344 3225 298 
Q 3253 253 3318 225 
Q 3384 197 3709 169 
L 3709 0 
Q 3328 22 3172 22 
Q 3038 22 2622 0 
Q 2631 216 2638 581 
Q 2513 491 2302 309 
Q 2091 128 1972 13 
Q 1722 -50 1531 -50 
Q 1178 -50 881 125 
Q 584 300 423 633 
Q 263 966 263 1381 
Q 263 1694 361 1973 
Q 459 2253 609 2406 
Q 694 2494 994 2672 
Q 1294 2850 1480 2929 
Q 1666 3009 1884 3009 
Q 2081 3009 2270 2961 
Q 2459 2913 2638 2813 
L 2638 3634 
Q 2638 4069 2600 4163 
Q 2588 4197 2553 4213 
Q 2491 4241 2122 4244 
z
M 2638 2278 
Q 2425 2513 2192 2620 
Q 1959 2728 1734 2728 
Q 1478 2728 1262 2597 
Q 1047 2466 933 2200 
Q 819 1934 819 1563 
Q 819 991 1103 669 
Q 1388 347 1788 347 
Q 1997 347 2162 434 
Q 2328 522 2453 690 
Q 2578 859 2613 1066 
Q 2638 1203 2638 1744 
L 2638 2278 
z
" transform="scale(0.015625)"/>
       <path id="Palatino-Roman-20" transform="scale(0.015625)"/>
       <path id="Palatino-Roman-4f" d="M 153 2191 
Q 153 2684 301 3103 
Q 450 3522 794 3856 
Q 1138 4191 1572 4361 
Q 2006 4531 2566 4531 
Q 3081 4531 3503 4386 
Q 3925 4241 4195 4002 
Q 4466 3763 4622 3478 
Q 4741 3266 4811 2978 
Q 4881 2691 4881 2363 
Q 4881 1309 4173 609 
Q 3466 -91 2388 -91 
Q 1897 -91 1472 68 
Q 1047 228 753 542 
Q 459 856 306 1304 
Q 153 1753 153 2191 
z
M 803 2450 
Q 803 2153 862 1847 
Q 922 1541 1013 1319 
Q 1163 944 1405 689 
Q 1647 434 1945 314 
Q 2244 194 2606 194 
Q 3109 194 3481 439 
Q 3853 684 4036 1129 
Q 4219 1575 4219 2156 
Q 4219 2653 4088 3072 
Q 4006 3328 3872 3536 
Q 3738 3744 3552 3898 
Q 3366 4053 3069 4159 
Q 2772 4266 2428 4266 
Q 1931 4266 1556 4044 
Q 1181 3822 992 3401 
Q 803 2981 803 2450 
z
" transform="scale(0.015625)"/>
       <path id="Palatino-Roman-63" d="M 2713 359 
L 2588 150 
Q 2372 34 2161 -19 
Q 1950 -72 1684 -72 
Q 1028 -72 639 323 
Q 250 719 250 1409 
Q 250 1775 354 2045 
Q 459 2316 613 2463 
Q 716 2566 1005 2730 
Q 1294 2894 1409 2941 
Q 1622 3031 1919 3031 
Q 2200 3031 2425 2972 
Q 2569 2934 2713 2847 
Q 2675 2606 2659 2482 
Q 2644 2359 2619 2034 
L 2441 2034 
Q 2422 2338 2403 2413 
Q 2391 2459 2347 2497 
Q 2234 2584 2057 2648 
Q 1881 2713 1672 2713 
Q 1409 2713 1217 2605 
Q 1025 2497 919 2262 
Q 813 2028 813 1681 
Q 813 1256 963 912 
Q 1113 569 1370 411 
Q 1628 253 1947 253 
Q 2106 253 2257 292 
Q 2409 331 2647 441 
L 2713 359 
z
" transform="scale(0.015625)"/>
       <path id="Palatino-Roman-75" d="M 3697 178 
L 3697 0 
Q 3288 22 3078 22 
Q 2847 22 2609 0 
Q 2628 253 2638 569 
Q 2450 419 2191 159 
Q 2131 100 2075 72 
Q 1941 -3 1806 -36 
Q 1672 -69 1484 -69 
Q 1231 -69 1061 0 
Q 891 69 769 209 
Q 678 313 629 477 
Q 581 641 581 872 
Q 581 981 589 1078 
Q 597 1175 597 1269 
L 597 1803 
Q 597 1884 588 2213 
Q 581 2419 559 2481 
Q 547 2513 519 2531 
Q 472 2563 353 2563 
Q 181 2563 81 2566 
L 81 2744 
Q 753 2819 1056 2984 
Q 1106 3013 1134 3013 
Q 1156 3013 1170 2997 
Q 1184 2981 1184 2950 
Q 1184 2925 1181 2888 
Q 1169 2788 1159 2503 
Q 1141 1981 1141 1803 
L 1141 1194 
Q 1141 813 1192 658 
Q 1244 503 1392 411 
Q 1541 319 1759 319 
Q 1909 319 2057 370 
Q 2206 422 2325 519 
Q 2413 591 2503 713 
Q 2572 803 2594 851 
Q 2616 900 2622 994 
Q 2638 1269 2638 1541 
L 2638 1803 
Q 2638 1884 2628 2213 
Q 2622 2419 2600 2481 
Q 2588 2513 2559 2531 
Q 2513 2563 2394 2563 
Q 2222 2563 2122 2566 
L 2122 2744 
Q 2794 2819 3097 2984 
Q 3147 3013 3175 3013 
Q 3197 3013 3211 2997 
Q 3225 2981 3225 2950 
Q 3225 2925 3222 2888 
Q 3213 2788 3200 2491 
Q 3181 1981 3181 1803 
L 3181 1375 
L 3188 941 
Q 3197 563 3200 497 
Q 3203 341 3234 269 
Q 3250 241 3275 220 
Q 3300 200 3350 188 
Q 3369 184 3697 178 
z
" transform="scale(0.015625)"/>
       <path id="Palatino-Roman-65" d="M 2763 484 
L 2663 259 
Q 2447 125 2347 81 
Q 2200 16 2011 -29 
Q 1822 -75 1613 -75 
Q 1200 -75 865 97 
Q 531 269 345 611 
Q 159 953 159 1413 
Q 159 1772 257 2061 
Q 356 2350 481 2488 
Q 572 2588 762 2717 
Q 953 2847 1141 2922 
Q 1388 3025 1675 3025 
Q 2025 3025 2308 2865 
Q 2591 2706 2722 2431 
Q 2853 2156 2853 1809 
Q 2853 1722 2841 1597 
Q 2616 1553 2438 1541 
Q 2100 1516 1763 1516 
L 759 1516 
Q 766 1069 914 792 
Q 1063 516 1323 384 
Q 1584 253 1866 253 
Q 2056 253 2245 314 
Q 2434 375 2713 538 
L 2763 484 
z
M 759 1763 
Q 847 1753 1091 1744 
Q 1556 1728 1731 1728 
Q 2147 1728 2278 1744 
Q 2281 1819 2281 1859 
Q 2281 2353 2081 2584 
Q 1881 2816 1547 2816 
Q 1194 2816 978 2562 
Q 763 2309 759 1763 
z
" transform="scale(0.015625)"/>
       <path id="Palatino-Roman-6e" d="M 88 0 
L 88 178 
L 384 181 
Q 450 184 486 204 
Q 522 225 541 256 
Q 575 319 584 478 
Q 584 519 603 1375 
L 603 1747 
Q 603 1997 594 2284 
Q 584 2469 564 2503 
Q 544 2538 494 2555 
Q 444 2572 88 2569 
L 88 2747 
Q 719 2834 1009 2975 
Q 1072 3006 1094 3006 
Q 1116 3006 1128 2990 
Q 1141 2975 1141 2944 
Q 1141 2922 1138 2894 
Q 1128 2781 1119 2419 
L 1700 2916 
Q 1956 3009 2184 3009 
Q 2438 3009 2664 2906 
Q 2891 2803 3005 2647 
Q 3119 2491 3156 2253 
Q 3178 2113 3178 1469 
L 3178 916 
Q 3178 509 3200 363 
Q 3216 269 3248 233 
Q 3281 197 3350 188 
L 3684 178 
L 3684 0 
Q 3378 22 3175 22 
Q 3000 22 2594 0 
Q 2638 772 2638 975 
L 2638 1500 
Q 2638 1991 2600 2144 
Q 2547 2353 2359 2481 
Q 2172 2609 1906 2609 
Q 1672 2609 1478 2498 
Q 1284 2388 1201 2242 
Q 1119 2097 1119 1753 
L 1119 1375 
Q 1138 563 1138 497 
Q 1144 341 1175 269 
Q 1188 241 1213 220 
Q 1238 200 1291 188 
Q 1309 184 1634 178 
L 1634 0 
Q 1253 22 944 22 
Q 681 22 88 0 
z
" transform="scale(0.015625)"/>
       <path id="Palatino-Roman-73" d="M 291 944 
L 478 944 
Q 481 763 497 656 
Q 513 550 550 448 
Q 588 347 666 276 
Q 744 206 836 167 
Q 928 128 1023 115 
Q 1119 103 1313 103 
Q 1631 103 1836 272 
Q 2041 441 2041 734 
Q 2041 866 1977 966 
Q 1913 1066 1792 1122 
Q 1672 1178 1275 1268 
Q 878 1359 763 1400 
Q 588 1466 484 1559 
Q 381 1653 320 1797 
Q 259 1941 259 2109 
Q 259 2356 389 2564 
Q 519 2772 797 2901 
Q 1075 3031 1403 3031 
Q 1600 3031 1859 2976 
Q 2119 2922 2281 2841 
Q 2259 2494 2250 2134 
L 2072 2134 
Q 2056 2363 2036 2434 
Q 2016 2506 1981 2562 
Q 1947 2619 1862 2683 
Q 1778 2747 1645 2797 
Q 1513 2847 1319 2847 
Q 1044 2847 876 2684 
Q 709 2522 709 2303 
Q 709 2181 757 2093 
Q 806 2006 887 1951 
Q 969 1897 1116 1853 
L 1634 1725 
Q 2028 1625 2176 1553 
Q 2325 1481 2415 1329 
Q 2506 1178 2506 966 
Q 2506 544 2157 230 
Q 1809 -84 1225 -84 
Q 956 -84 509 -3 
Q 263 44 244 63 
Q 231 72 231 94 
Q 231 116 238 147 
Q 266 281 275 409 
Q 284 538 291 944 
z
" transform="scale(0.015625)"/>
      </defs>
      <use xlink:href="#Palatino-Roman-57"/>
      <use xlink:href="#Palatino-Roman-6f" transform="translate(90.875 0)"/>
      <use xlink:href="#Palatino-Roman-72" transform="translate(145.464844 0)"/>
      <use xlink:href="#Palatino-Roman-64" transform="translate(183.216797 0)"/>
      <use xlink:href="#Palatino-Roman-20" transform="translate(244.300781 0)"/>
      <use xlink:href="#Palatino-Roman-4f" transform="translate(269.300781 0)"/>
      <use xlink:href="#Palatino-Roman-63" transform="translate(347.914062 0)"/>
      <use xlink:href="#Palatino-Roman-63" transform="translate(392.298828 0)"/>
      <use xlink:href="#Palatino-Roman-75" transform="translate(436.683594 0)"/>
      <use xlink:href="#Palatino-Roman-72" transform="translate(496.986328 0)"/>
      <use xlink:href="#Palatino-Roman-72" transform="translate(536.488281 0)"/>
      <use xlink:href="#Palatino-Roman-65" transform="translate(574.240234 0)"/>
      <use xlink:href="#Palatino-Roman-6e" transform="translate(622.140625 0)"/>
      <use xlink:href="#Palatino-Roman-63" transform="translate(680.34375 0)"/>
      <use xlink:href="#Palatino-Roman-65" transform="translate(724.728516 0)"/>
      <use xlink:href="#Palatino-Roman-73" transform="translate(772.628906 0)"/>
     </g>
    </g>
    <g id="text_5">
     <!-- 1e6 -->
     <g style="fill: #333333" transform="translate(179.755679 205.615938) scale(0.1 -0.1)">
      <defs>
       <path id="Palatino-Roman-36" d="M 2700 4347 
L 2700 4309 
Q 2353 4231 1975 4000 
Q 1597 3769 1356 3473 
Q 1116 3178 998 2867 
Q 881 2556 847 2153 
Q 1028 2281 1116 2347 
Q 1341 2522 1405 2556 
Q 1469 2591 1580 2617 
Q 1691 2644 1847 2644 
Q 2391 2644 2687 2334 
Q 2984 2025 2984 1438 
Q 2984 1038 2838 741 
Q 2688 438 2511 281 
Q 2334 125 2104 17 
Q 1875 -91 1541 -91 
Q 969 -91 594 342 
Q 219 775 219 1603 
Q 219 2172 395 2653 
Q 572 3134 878 3481 
Q 1184 3828 1607 4089 
Q 2031 4350 2472 4456 
L 2700 4347 
z
M 788 1366 
Q 788 1119 844 875 
Q 878 731 939 593 
Q 1000 456 1098 347 
Q 1197 238 1333 178 
Q 1469 119 1628 119 
Q 1844 119 2030 236 
Q 2216 353 2330 617 
Q 2444 881 2444 1222 
Q 2444 1550 2333 1795 
Q 2222 2041 2026 2156 
Q 1831 2272 1613 2272 
Q 1338 2272 1075 2088 
Q 888 1956 838 1811 
Q 788 1666 788 1366 
z
" transform="scale(0.015625)"/>
      </defs>
      <use xlink:href="#Palatino-Roman-31"/>
      <use xlink:href="#Palatino-Roman-65" transform="translate(50 0)"/>
      <use xlink:href="#Palatino-Roman-36" transform="translate(97.900391 0)"/>
     </g>
    </g>
   </g>
   <g id="matplotlib.axis_2">
    <g id="ytick_1">
     <g id="line2d_7"/>
     <g id="text_6">
      <!-- east -->
      <g style="fill: #333333" transform="translate(15.982812 166.114303) scale(0.1 -0.1)">
       <defs>
        <path id="Palatino-Roman-61" d="M 678 2141 
L 513 2184 
Q 516 2256 516 2381 
Q 516 2513 513 2591 
Q 909 2850 1163 2941 
Q 1356 3006 1597 3006 
Q 1953 3006 2197 2872 
Q 2441 2738 2559 2488 
Q 2641 2313 2641 2009 
L 2628 1438 
L 2628 506 
Q 2628 356 2653 291 
Q 2672 244 2713 222 
Q 2744 203 2844 197 
L 3047 178 
L 3047 0 
Q 2791 22 2597 22 
Q 2409 22 2097 0 
L 2113 550 
Q 1475 69 1356 8 
Q 1238 -53 1056 -53 
Q 678 -53 467 148 
Q 256 350 256 684 
Q 256 900 329 1078 
Q 403 1256 506 1361 
Q 609 1466 716 1516 
Q 897 1600 1305 1697 
Q 1713 1794 2113 1841 
Q 2116 2138 2041 2303 
Q 1966 2469 1787 2575 
Q 1609 2681 1353 2681 
Q 1169 2681 1030 2631 
Q 891 2581 859 2547 
L 803 2434 
Q 719 2247 678 2141 
z
M 2113 1650 
Q 1706 1581 1418 1497 
Q 1131 1413 1013 1322 
Q 941 1269 888 1163 
Q 806 1006 806 816 
Q 806 584 934 454 
Q 1063 325 1291 325 
Q 1500 325 1704 445 
Q 1909 566 2113 806 
L 2113 1650 
z
" transform="scale(0.015625)"/>
        <path id="Palatino-Roman-74" d="M 144 2450 
L 144 2581 
Q 456 2700 641 2794 
Q 641 3538 622 3744 
Q 947 3856 1150 3984 
L 1225 3922 
Q 1191 3663 1150 2778 
Q 1400 2775 1450 2775 
Q 1478 2775 1772 2781 
Q 1934 2784 2016 2794 
L 2038 2772 
L 1972 2481 
Q 1775 2484 1609 2484 
Q 1444 2484 1150 2481 
L 1131 1209 
Q 1122 744 1137 653 
Q 1153 563 1197 495 
Q 1241 428 1311 387 
Q 1381 347 1550 325 
Q 1678 325 1758 336 
Q 1838 347 1959 391 
L 1997 269 
Q 1850 153 1713 28 
Q 1594 -16 1491 -30 
Q 1388 -44 1253 -44 
Q 1088 -44 989 -6 
Q 891 31 809 98 
Q 728 166 675 269 
Q 622 372 606 594 
Q 609 806 619 1059 
Q 622 1109 622 1169 
L 622 2466 
L 494 2466 
Q 338 2466 144 2450 
z
" transform="scale(0.015625)"/>
       </defs>
       <use xlink:href="#Palatino-Roman-65"/>
       <use xlink:href="#Palatino-Roman-61" transform="translate(47.900391 0)"/>
       <use xlink:href="#Palatino-Roman-73" transform="translate(97.900391 0)"/>
       <use xlink:href="#Palatino-Roman-74" transform="translate(140.283203 0)"/>
      </g>
     </g>
    </g>
    <g id="ytick_2">
     <g id="line2d_8"/>
     <g id="text_7">
      <!-- north -->
      <g style="fill: #333333" transform="translate(8.9625 145.251109) scale(0.1 -0.1)">
       <defs>
        <path id="Palatino-Roman-68" d="M 41 0 
L 41 178 
L 334 181 
Q 403 184 439 204 
Q 475 225 494 256 
Q 528 319 534 478 
Q 538 519 556 1375 
L 556 2991 
Q 556 3513 538 4069 
Q 525 4444 503 4488 
Q 488 4519 453 4531 
Q 406 4553 22 4553 
L 22 4738 
Q 728 4825 1003 4956 
Q 1044 4975 1066 4975 
Q 1088 4975 1100 4961 
Q 1113 4947 1113 4922 
Q 1113 4900 1106 4859 
L 1103 4756 
Q 1088 4197 1084 3803 
L 1078 3316 
L 1078 2403 
Q 1122 2438 1325 2616 
Q 1528 2794 1566 2828 
Q 1625 2884 1659 2903 
Q 1719 2934 1838 2966 
Q 2000 3009 2153 3009 
Q 2441 3009 2698 2873 
Q 2956 2738 3056 2531 
Q 3156 2325 3156 1922 
L 3156 1372 
L 3166 941 
Q 3175 538 3175 488 
Q 3181 338 3213 269 
Q 3225 238 3250 217 
Q 3275 197 3325 188 
Q 3344 184 3650 178 
L 3650 0 
Q 3294 16 3131 16 
Q 2994 16 2566 0 
Q 2609 463 2609 900 
L 2609 1675 
Q 2609 2038 2556 2197 
Q 2503 2356 2339 2482 
Q 2175 2609 1903 2609 
Q 1731 2609 1597 2559 
Q 1463 2509 1350 2409 
Q 1238 2309 1159 2194 
Q 1122 2138 1109 2058 
Q 1097 1978 1097 1738 
L 1097 1372 
Q 1113 563 1116 497 
Q 1122 341 1153 269 
Q 1166 238 1191 217 
Q 1216 197 1266 188 
Q 1288 184 1613 178 
L 1613 0 
Q 1056 22 844 22 
Q 659 22 41 0 
z
" transform="scale(0.015625)"/>
       </defs>
       <use xlink:href="#Palatino-Roman-6e"/>
       <use xlink:href="#Palatino-Roman-6f" transform="translate(58.203125 0)"/>
       <use xlink:href="#Palatino-Roman-72" transform="translate(112.792969 0)"/>
       <use xlink:href="#Palatino-Roman-74" transform="translate(152.294922 0)"/>
       <use xlink:href="#Palatino-Roman-68" transform="translate(184.912109 0)"/>
      </g>
     </g>
    </g>
    <g id="ytick_3">
     <g id="line2d_9"/>
     <g id="text_8">
      <!-- court -->
      <g style="fill: #333333" transform="translate(10.134375 124.387915) scale(0.1 -0.1)">
       <use xlink:href="#Palatino-Roman-63"/>
       <use xlink:href="#Palatino-Roman-6f" transform="translate(44.384766 0)"/>
       <use xlink:href="#Palatino-Roman-75" transform="translate(98.974609 0)"/>
       <use xlink:href="#Palatino-Roman-72" transform="translate(159.277344 0)"/>
       <use xlink:href="#Palatino-Roman-74" transform="translate(198.779297 0)"/>
      </g>
     </g>
    </g>
    <g id="ytick_4">
     <g id="line2d_10"/>
     <g id="text_9">
      <!-- avenue -->
      <g style="fill: #333333" transform="translate(1.19375 103.524722) scale(0.1 -0.1)">
       <defs>
        <path id="Palatino-Roman-76" d="M 1594 -31 
Q 1472 288 1425 397 
L 1169 994 
L 528 2484 
Q 466 2625 422 2672 
Q 378 2719 325 2731 
Q 281 2744 94 2750 
L 94 2938 
Q 613 2916 850 2916 
Q 1113 2916 1569 2938 
L 1569 2750 
Q 1231 2741 1172 2706 
Q 1113 2672 1113 2613 
Q 1113 2519 1238 2209 
L 1619 1259 
L 1709 1047 
Q 1863 675 1919 550 
L 2231 1259 
Q 2259 1322 2516 1963 
Q 2666 2334 2716 2531 
Q 2728 2584 2728 2625 
Q 2728 2678 2688 2700 
Q 2613 2741 2288 2750 
L 2288 2938 
Q 2753 2916 2884 2916 
Q 2994 2916 3481 2938 
L 3481 2750 
Q 3288 2741 3223 2705 
Q 3159 2669 3097 2556 
Q 3053 2481 2759 1881 
L 2459 1241 
Q 2381 1069 1919 -31 
L 1594 -31 
z
" transform="scale(0.015625)"/>
       </defs>
       <use xlink:href="#Palatino-Roman-61"/>
       <use xlink:href="#Palatino-Roman-76" transform="translate(50 0)"/>
       <use xlink:href="#Palatino-Roman-65" transform="translate(106.494141 0)"/>
       <use xlink:href="#Palatino-Roman-6e" transform="translate(154.394531 0)"/>
       <use xlink:href="#Palatino-Roman-75" transform="translate(212.597656 0)"/>
       <use xlink:href="#Palatino-Roman-65" transform="translate(272.900391 0)"/>
      </g>
     </g>
    </g>
    <g id="ytick_5">
     <g id="line2d_11"/>
     <g id="text_10">
      <!-- lane -->
      <g style="fill: #333333" transform="translate(14.753125 82.661528) scale(0.1 -0.1)">
       <defs>
        <path id="Palatino-Roman-6c" d="M 159 0 
L 159 178 
L 453 181 
Q 522 184 558 204 
Q 594 225 613 256 
Q 647 319 653 478 
Q 656 519 675 1375 
L 675 2672 
Q 675 3194 656 3750 
Q 644 4125 622 4169 
Q 606 4200 572 4213 
Q 525 4234 141 4234 
L 141 4419 
Q 847 4506 1122 4638 
Q 1163 4656 1184 4656 
Q 1206 4656 1218 4642 
Q 1231 4628 1231 4603 
Q 1231 4581 1225 4541 
L 1222 4438 
Q 1206 3878 1203 3484 
L 1197 2997 
L 1197 1375 
Q 1213 563 1216 497 
Q 1219 341 1253 269 
Q 1266 241 1291 220 
Q 1316 200 1366 188 
Q 1388 184 1713 178 
L 1713 0 
Q 1288 25 966 25 
Q 659 25 159 0 
z
" transform="scale(0.015625)"/>
       </defs>
       <use xlink:href="#Palatino-Roman-6c"/>
       <use xlink:href="#Palatino-Roman-61" transform="translate(29.101562 0)"/>
       <use xlink:href="#Palatino-Roman-6e" transform="translate(79.101562 0)"/>
       <use xlink:href="#Palatino-Roman-65" transform="translate(137.304688 0)"/>
      </g>
     </g>
    </g>
    <g id="ytick_6">
     <g id="line2d_12"/>
     <g id="text_11">
      <!-- drive -->
      <g style="fill: #333333" transform="translate(9.865625 61.798335) scale(0.1 -0.1)">
       <defs>
        <path id="Palatino-Roman-69" d="M 903 4400 
Q 1050 4400 1151 4297 
Q 1253 4194 1253 4047 
Q 1253 3903 1150 3800 
Q 1047 3697 903 3697 
Q 756 3697 653 3800 
Q 550 3903 550 4047 
Q 550 4194 653 4297 
Q 756 4400 903 4400 
z
M 141 2572 
L 141 2750 
Q 747 2819 1159 3013 
L 1228 2963 
Q 1203 2297 1203 1944 
L 1203 1375 
Q 1219 563 1222 497 
Q 1225 341 1256 269 
Q 1272 241 1297 220 
Q 1322 200 1372 188 
Q 1391 184 1719 178 
L 1719 0 
Q 1244 22 959 22 
Q 709 22 141 0 
L 141 178 
L 438 181 
Q 503 184 539 204 
Q 575 225 594 256 
Q 628 319 638 478 
Q 638 519 656 1375 
L 656 1925 
Q 656 2391 625 2478 
Q 606 2525 557 2548 
Q 509 2572 141 2572 
z
" transform="scale(0.015625)"/>
       </defs>
       <use xlink:href="#Palatino-Roman-64"/>
       <use xlink:href="#Palatino-Roman-72" transform="translate(61.083984 0)"/>
       <use xlink:href="#Palatino-Roman-69" transform="translate(100.585938 0)"/>
       <use xlink:href="#Palatino-Roman-76" transform="translate(129.6875 0)"/>
       <use xlink:href="#Palatino-Roman-65" transform="translate(186.181641 0)"/>
      </g>
     </g>
    </g>
    <g id="ytick_7">
     <g id="line2d_13"/>
     <g id="text_12">
      <!-- street -->
      <g style="fill: #333333" transform="translate(9.154687 40.935141) scale(0.1 -0.1)">
       <use xlink:href="#Palatino-Roman-73"/>
       <use xlink:href="#Palatino-Roman-74" transform="translate(42.382812 0)"/>
       <use xlink:href="#Palatino-Roman-72" transform="translate(75 0)"/>
       <use xlink:href="#Palatino-Roman-65" transform="translate(112.751953 0)"/>
       <use xlink:href="#Palatino-Roman-65" transform="translate(160.652344 0)"/>
       <use xlink:href="#Palatino-Roman-74" transform="translate(208.552734 0)"/>
      </g>
     </g>
    </g>
    <g id="ytick_8">
     <g id="line2d_14"/>
     <g id="text_13">
      <!-- road -->
      <g style="fill: #333333" transform="translate(12.932812 20.071947) scale(0.1 -0.1)">
       <use xlink:href="#Palatino-Roman-72"/>
       <use xlink:href="#Palatino-Roman-6f" transform="translate(37.751953 0)"/>
       <use xlink:href="#Palatino-Roman-61" transform="translate(92.341797 0)"/>
       <use xlink:href="#Palatino-Roman-64" transform="translate(142.341797 0)"/>
      </g>
     </g>
    </g>
   </g>
   <g id="patch_3">
    <path d="M 41.275 169.77892 
L 64.123281 169.77892 
L 64.123281 155.174685 
L 41.275 155.174685 
z
" clip-path="url(#pfdfb327c3b)" style="fill: #c17767"/>
   </g>
   <g id="patch_4">
    <path d="M 41.275 148.915727 
L 65.311157 148.915727 
L 65.311157 134.311491 
L 41.275 134.311491 
z
" clip-path="url(#pfdfb327c3b)" style="fill: #c17767"/>
   </g>
   <g id="patch_5">
    <path d="M 41.275 128.052533 
L 97.536967 128.052533 
L 97.536967 113.448298 
L 41.275 113.448298 
z
" clip-path="url(#pfdfb327c3b)" style="fill: #c17767"/>
   </g>
   <g id="patch_6">
    <path d="M 41.275 107.18934 
L 98.615629 107.18934 
L 98.615629 92.585104 
L 41.275 92.585104 
z
" clip-path="url(#pfdfb327c3b)" style="fill: #c17767"/>
   </g>
   <g id="patch_7">
    <path d="M 41.275 86.326146 
L 109.752562 86.326146 
L 109.752562 71.72191 
L 41.275 71.72191 
z
" clip-path="url(#pfdfb327c3b)" style="fill: #c17767"/>
   </g>
   <g id="patch_8">
    <path d="M 41.275 65.462952 
L 147.346542 65.462952 
L 147.346542 50.858717 
L 41.275 50.858717 
z
" clip-path="url(#pfdfb327c3b)" style="fill: #c17767"/>
   </g>
   <g id="patch_9">
    <path d="M 41.275 44.599759 
L 153.501351 44.599759 
L 153.501351 29.995523 
L 41.275 29.995523 
z
" clip-path="url(#pfdfb327c3b)" style="fill: #c17767"/>
   </g>
   <g id="patch_10">
    <path d="M 41.275 23.736565 
L 174.554395 23.736565 
L 174.554395 9.13233 
L 41.275 9.13233 
z
" clip-path="url(#pfdfb327c3b)" style="fill: #c17767"/>
   </g>
   <g id="patch_11">
    <path d="M 41.275 177.81125 
L 41.275 1.1 
" style="fill: none; stroke: #cccccc; stroke-width: 0.5; stroke-linejoin: miter; stroke-linecap: square"/>
   </g>
   <g id="patch_12">
    <path d="M 41.275 177.81125 
L 194.546304 177.81125 
" style="fill: none; stroke: #cccccc; stroke-width: 0.5; stroke-linejoin: miter; stroke-linecap: square"/>
   </g>
   <g id="text_14">
    <!-- 213,600 -->
    <g style="fill: #111111" transform="translate(66.122472 164.736959) scale(0.1 -0.1)">
     <defs>
      <path id="Palatino-Roman-32" d="M 106 0 
L 106 175 
Q 203 297 456 556 
L 1153 1281 
Q 1234 1366 1550 1722 
Q 1788 1994 1922 2217 
Q 2056 2441 2118 2652 
Q 2181 2863 2181 3053 
Q 2181 3378 2000 3616 
Q 1766 3931 1319 3931 
Q 1069 3931 881 3850 
Q 694 3769 630 3670 
Q 566 3572 441 3106 
L 253 3106 
Q 328 3525 359 3969 
Q 556 4156 689 4237 
Q 822 4319 1015 4367 
Q 1209 4416 1438 4416 
Q 1847 4416 2128 4277 
Q 2409 4138 2578 3863 
Q 2747 3588 2747 3241 
Q 2747 2866 2555 2502 
Q 2363 2138 1756 1534 
L 1222 1003 
Q 931 713 781 541 
L 2153 541 
Q 2566 541 2963 581 
L 2984 556 
Q 2966 438 2966 278 
Q 2966 134 2984 34 
L 2963 0 
Q 2741 13 2456 19 
Q 1819 31 1603 31 
Q 1331 31 688 19 
Q 334 13 106 0 
z
" transform="scale(0.015625)"/>
      <path id="Palatino-Roman-33" d="M 325 97 
Q 281 363 247 506 
Q 225 597 106 1022 
L 278 1088 
Q 475 563 729 377 
Q 984 191 1394 191 
Q 1694 191 1898 309 
Q 2103 428 2231 687 
Q 2359 947 2359 1272 
Q 2359 1706 2137 1939 
Q 1916 2172 1541 2172 
Q 1416 2172 1308 2147 
Q 1200 2122 988 2034 
L 950 2066 
L 1019 2406 
Q 1269 2391 1353 2391 
Q 1734 2391 1942 2658 
Q 2150 2925 2150 3263 
Q 2150 3566 1929 3778 
Q 1709 3991 1372 3991 
Q 1169 3991 981 3909 
Q 794 3828 650 3691 
Q 594 3572 472 3244 
L 278 3244 
L 472 3994 
Q 681 4213 866 4300 
Q 1169 4438 1528 4438 
Q 2056 4438 2364 4159 
Q 2672 3881 2672 3484 
Q 2672 3216 2512 2955 
Q 2353 2694 1972 2422 
Q 2325 2375 2529 2261 
Q 2734 2147 2843 1939 
Q 2953 1731 2953 1475 
Q 2953 1103 2718 743 
Q 2484 384 2059 150 
Q 1634 -84 1138 -84 
Q 919 -84 737 -43 
Q 556 -3 325 97 
z
" transform="scale(0.015625)"/>
      <path id="Palatino-Roman-2c" d="M -44 -875 
Q 194 -481 294 -264 
Q 394 -47 450 166 
Q 478 272 525 628 
L 863 713 
Q 931 734 1163 816 
L 1244 728 
Q 856 -175 300 -831 
L 34 -953 
L -44 -875 
z
" transform="scale(0.015625)"/>
     </defs>
     <use xlink:href="#Palatino-Roman-32"/>
     <use xlink:href="#Palatino-Roman-31" transform="translate(50 0)"/>
     <use xlink:href="#Palatino-Roman-33" transform="translate(100 0)"/>
     <use xlink:href="#Palatino-Roman-2c" transform="translate(150 0)"/>
     <use xlink:href="#Palatino-Roman-36" transform="translate(175 0)"/>
     <use xlink:href="#Palatino-Roman-30" transform="translate(225 0)"/>
     <use xlink:href="#Palatino-Roman-30" transform="translate(275 0)"/>
    </g>
   </g>
   <g id="text_15">
    <!-- 224,705 -->
    <g style="fill: #111111" transform="translate(67.310348 143.873765) scale(0.1 -0.1)">
     <defs>
      <path id="Palatino-Roman-34" d="M 1003 0 
L 1003 184 
Q 1491 194 1575 211 
Q 1659 228 1694 266 
Q 1738 319 1756 456 
Q 1784 688 1784 934 
L 1784 1166 
L 1100 1166 
Q 534 1166 91 1147 
L 38 1316 
Q 278 1769 681 2425 
Q 1269 3381 1853 4266 
Q 1888 4281 2022 4338 
Q 2259 4431 2294 4444 
L 2372 4406 
Q 2350 4031 2344 3481 
Q 2328 2322 2328 2209 
L 2328 1563 
Q 2753 1566 3025 1584 
Q 3016 1428 3016 1378 
L 3025 1147 
Q 2706 1166 2488 1166 
L 2328 1166 
L 2328 956 
Q 2328 431 2375 316 
Q 2394 269 2450 241 
Q 2569 188 3025 184 
L 3025 0 
Q 2350 25 1988 25 
Q 1597 25 1003 0 
z
M 450 1563 
L 1784 1563 
L 1813 3784 
Q 1472 3294 1042 2584 
Q 613 1875 450 1563 
z
" transform="scale(0.015625)"/>
      <path id="Palatino-Roman-37" d="M 422 0 
L 356 66 
Q 466 228 975 1031 
Q 1141 1297 1800 2369 
Q 2069 2806 2525 3606 
Q 2566 3675 2638 3813 
L 2606 3844 
L 1638 3844 
Q 1347 3844 1034 3833 
Q 722 3822 653 3794 
Q 613 3778 594 3753 
L 569 3716 
L 478 3034 
L 294 3034 
L 309 3856 
Q 309 4059 294 4369 
L 356 4400 
Q 606 4378 1041 4359 
Q 1603 4338 1778 4338 
Q 2169 4338 3169 4381 
L 3169 4194 
L 2719 3397 
Q 2575 3138 2025 2122 
Q 1641 1409 1353 797 
Q 1134 334 1009 0 
Q 831 16 709 16 
Q 578 16 422 0 
z
" transform="scale(0.015625)"/>
     </defs>
     <use xlink:href="#Palatino-Roman-32"/>
     <use xlink:href="#Palatino-Roman-32" transform="translate(50 0)"/>
     <use xlink:href="#Palatino-Roman-34" transform="translate(100 0)"/>
     <use xlink:href="#Palatino-Roman-2c" transform="translate(150 0)"/>
     <use xlink:href="#Palatino-Roman-37" transform="translate(175 0)"/>
     <use xlink:href="#Palatino-Roman-30" transform="translate(225 0)"/>
     <use xlink:href="#Palatino-Roman-35" transform="translate(275 0)"/>
    </g>
   </g>
   <g id="text_16">
    <!-- 525,972 -->
    <g style="fill: #111111" transform="translate(99.536158 123.010572) scale(0.1 -0.1)">
     <defs>
      <path id="Palatino-Roman-39" d="M 416 0 
L 416 59 
Q 978 194 1408 486 
Q 1838 778 2091 1278 
Q 2291 1672 2341 2197 
Q 2200 2100 2009 1931 
Q 1897 1828 1838 1794 
Q 1747 1734 1631 1700 
Q 1481 1656 1306 1656 
Q 806 1656 484 1993 
Q 163 2331 163 2919 
Q 163 3588 566 4002 
Q 969 4416 1581 4416 
Q 1972 4416 2281 4223 
Q 2591 4031 2767 3662 
Q 2944 3294 2944 2706 
Q 2944 1981 2678 1438 
Q 2356 775 1725 347 
Q 1197 -13 622 -100 
L 416 0 
z
M 703 3122 
Q 703 2856 795 2592 
Q 888 2328 1088 2186 
Q 1288 2044 1553 2044 
Q 1919 2044 2145 2291 
Q 2372 2538 2372 3034 
Q 2372 3525 2158 3862 
Q 1944 4200 1534 4200 
Q 1178 4200 940 3929 
Q 703 3659 703 3122 
z
" transform="scale(0.015625)"/>
     </defs>
     <use xlink:href="#Palatino-Roman-35"/>
     <use xlink:href="#Palatino-Roman-32" transform="translate(50 0)"/>
     <use xlink:href="#Palatino-Roman-35" transform="translate(100 0)"/>
     <use xlink:href="#Palatino-Roman-2c" transform="translate(150 0)"/>
     <use xlink:href="#Palatino-Roman-39" transform="translate(175 0)"/>
     <use xlink:href="#Palatino-Roman-37" transform="translate(225 0)"/>
     <use xlink:href="#Palatino-Roman-32" transform="translate(275 0)"/>
    </g>
   </g>
   <g id="text_17">
    <!-- 536,056 -->
    <g style="fill: #111111" transform="translate(100.61482 102.147378) scale(0.1 -0.1)">
     <use xlink:href="#Palatino-Roman-35"/>
     <use xlink:href="#Palatino-Roman-33" transform="translate(50 0)"/>
     <use xlink:href="#Palatino-Roman-36" transform="translate(100 0)"/>
     <use xlink:href="#Palatino-Roman-2c" transform="translate(150 0)"/>
     <use xlink:href="#Palatino-Roman-30" transform="translate(175 0)"/>
     <use xlink:href="#Palatino-Roman-35" transform="translate(225 0)"/>
     <use xlink:href="#Palatino-Roman-36" transform="translate(275 0)"/>
    </g>
   </g>
   <g id="text_18">
    <!-- 640,171 -->
    <g style="fill: #111111" transform="translate(111.751752 81.284184) scale(0.1 -0.1)">
     <use xlink:href="#Palatino-Roman-36"/>
     <use xlink:href="#Palatino-Roman-34" transform="translate(50 0)"/>
     <use xlink:href="#Palatino-Roman-30" transform="translate(100 0)"/>
     <use xlink:href="#Palatino-Roman-2c" transform="translate(150 0)"/>
     <use xlink:href="#Palatino-Roman-31" transform="translate(175 0)"/>
     <use xlink:href="#Palatino-Roman-37" transform="translate(225 0)"/>
     <use xlink:href="#Palatino-Roman-31" transform="translate(275 0)"/>
    </g>
   </g>
   <g id="text_19">
    <!-- 991,623 -->
    <g style="fill: #111111" transform="translate(149.345733 60.420991) scale(0.1 -0.1)">
     <use xlink:href="#Palatino-Roman-39"/>
     <use xlink:href="#Palatino-Roman-39" transform="translate(50 0)"/>
     <use xlink:href="#Palatino-Roman-31" transform="translate(100 0)"/>
     <use xlink:href="#Palatino-Roman-2c" transform="translate(150 0)"/>
     <use xlink:href="#Palatino-Roman-36" transform="translate(175 0)"/>
     <use xlink:href="#Palatino-Roman-32" transform="translate(225 0)"/>
     <use xlink:href="#Palatino-Roman-33" transform="translate(275 0)"/>
    </g>
   </g>
   <g id="text_20">
    <!-- 1,049,162 -->
    <g style="fill: #111111" transform="translate(155.500542 39.557797) scale(0.1 -0.1)">
     <use xlink:href="#Palatino-Roman-31"/>
     <use xlink:href="#Palatino-Roman-2c" transform="translate(50 0)"/>
     <use xlink:href="#Palatino-Roman-30" transform="translate(75 0)"/>
     <use xlink:href="#Palatino-Roman-34" transform="translate(125 0)"/>
     <use xlink:href="#Palatino-Roman-39" transform="translate(175 0)"/>
     <use xlink:href="#Palatino-Roman-2c" transform="translate(225 0)"/>
     <use xlink:href="#Palatino-Roman-31" transform="translate(250 0)"/>
     <use xlink:href="#Palatino-Roman-36" transform="translate(300 0)"/>
     <use xlink:href="#Palatino-Roman-32" transform="translate(350 0)"/>
    </g>
   </g>
   <g id="text_21">
    <!-- 1,245,979 -->
    <g style="fill: #111111" transform="translate(176.553586 18.694604) scale(0.1 -0.1)">
     <use xlink:href="#Palatino-Roman-31"/>
     <use xlink:href="#Palatino-Roman-2c" transform="translate(50 0)"/>
     <use xlink:href="#Palatino-Roman-32" transform="translate(75 0)"/>
     <use xlink:href="#Palatino-Roman-34" transform="translate(125 0)"/>
     <use xlink:href="#Palatino-Roman-35" transform="translate(175 0)"/>
     <use xlink:href="#Palatino-Roman-2c" transform="translate(225 0)"/>
     <use xlink:href="#Palatino-Roman-39" transform="translate(250 0)"/>
     <use xlink:href="#Palatino-Roman-37" transform="translate(300 0)"/>
     <use xlink:href="#Palatino-Roman-39" transform="translate(350 0)"/>
    </g>
   </g>
  </g>
 </g>
 <defs>
  <clipPath id="pfdfb327c3b">
   <rect x="41.275" y="1.1" width="153.271304" height="176.71125"/>
  </clipPath>
 </defs>
</svg>
